<svg xmlns="http://www.w3.org/2000/svg"  viewBox="0 0 48 48" width="480px" height="480px"><path fill="#cfd8dc" d="M18,3h26v32H18V3z"/><path fill="#455a64" d="M18,3h26v8H18V3z"/><path fill="#cddc39" d="M35,5h6v3h-6V5z"/><path fill="#b0bec5" d="M40,22c0,4.972-4.028,9-9,9s-9-4.028-9-9s4.028-9,9-9S40,17.028,40,22z"/><path fill="#90a4ae" d="M23 6.5C23 7.328 22.328 8 21.5 8S20 7.328 20 6.5 20.672 5 21.5 5 23 5.672 23 6.5zM27 6.5C27 7.328 26.328 8 25.5 8S24 7.328 24 6.5 24.672 5 25.5 5 27 5.672 27 6.5zM37 22c0 3.315-2.685 6-6 6s-6-2.685-6-6 2.685-6 6-6S37 18.685 37 22z"/><path fill="#1690d5" d="M9 23.5L0 40.947 3 43 12 29.658 9 23.5zM25 23.5L34 40.947 31 43 22 29.658 25 23.5z"/><path fill="#caf0ff" d="M25 23.5L17 22.042 9 23.5 9 46 25 46z"/><path fill="#1690d5" d="M13.125 22L12 23 14.375 26 16.5 22zM20.875 22L22 23 19.625 26 17.5 22z"/><path fill="#7bbdea" d="M16 22H18V46H16z"/></svg>