<?xml version="1.0" standalone="no"?>
<!DOCTYPE svg PUBLIC "-//W3C//DTD SVG 20010904//EN"
 "http://www.w3.org/TR/2001/REC-SVG-20010904/DTD/svg10.dtd">
<svg version="1.0" xmlns="http://www.w3.org/2000/svg"
 width="2708.000000pt" height="2708.000000pt" viewBox="0 0 2708.000000 2708.000000"
 preserveAspectRatio="xMidYMid meet">
<metadata>
Created by potrace 1.14, written by Peter Selinger 2001-2017
</metadata>
<g transform="translate(0.000000,2708.000000) scale(0.100000,-0.100000)"
fill="#000000" stroke="none">
<path d="M11079 26810 c0 -8 -1 -2638 -2 -5845 l-2 -5830 -1460 -2 c-803 -1
-1479 -2 -1501 -2 -31 -1 -49 -8 -72 -28 -16 -16 -57 -53 -92 -83 -34 -30 -72
-64 -84 -75 -13 -11 -56 -49 -96 -85 -41 -36 -81 -72 -90 -80 -9 -8 -70 -63
-135 -121 -131 -115 -107 -104 -280 -135 -11 -2 -36 -7 -55 -10 -19 -4 -44 -8
-55 -10 -11 -3 -58 -11 -105 -19 -47 -9 -97 -18 -110 -20 -14 -3 -40 -8 -59
-11 -18 -3 -43 -8 -55 -10 -11 -2 -32 -6 -46 -9 -14 -3 -36 -7 -50 -10 -13 -2
-42 -7 -65 -10 -22 -4 -74 -13 -115 -22 -41 -8 -86 -17 -100 -19 -48 -8 -85
-14 -110 -19 -14 -3 -50 -9 -80 -15 -30 -5 -91 -16 -135 -24 -44 -8 -96 -17
-115 -21 -19 -3 -94 -17 -167 -31 -73 -13 -150 -27 -170 -30 -21 -3 -40 -7
-43 -9 -3 -2 -26 -6 -50 -10 -25 -4 -45 -7 -46 -8 0 -1 -21 -42 -46 -92 -49
-98 -197 -386 -288 -560 -32 -60 -104 -200 -160 -310 -124 -241 -239 -465
-330 -640 -37 -71 -109 -211 -160 -310 -51 -99 -126 -245 -168 -325 -41 -80
-113 -219 -159 -310 -47 -91 -118 -228 -158 -305 -40 -77 -114 -221 -165 -320
-86 -167 -126 -244 -343 -665 -44 -85 -110 -213 -147 -285 -37 -71 -111 -215
-165 -320 -172 -335 -266 -517 -325 -630 -32 -60 -104 -200 -160 -310 -56
-110 -135 -263 -175 -340 -150 -289 -225 -435 -315 -610 -184 -358 -274 -532
-340 -660 -65 -126 -139 -269 -330 -640 -51 -99 -121 -234 -155 -300 -34 -66
-104 -201 -155 -300 -145 -281 -256 -498 -335 -650 -130 -252 -245 -474 -503
-975 -52 -102 -116 -225 -142 -275 -167 -317 -312 -609 -304 -612 5 -2 92 -61
194 -131 102 -70 264 -181 360 -247 96 -65 195 -133 218 -150 24 -16 56 -38
70 -47 15 -10 35 -23 45 -30 37 -27 272 -187 462 -316 110 -75 202 -138 205
-141 3 -3 46 -33 95 -66 50 -33 92 -62 95 -65 3 -3 25 -18 49 -34 36 -23 46
-26 56 -14 7 7 71 101 144 208 72 107 134 200 138 205 5 6 39 57 78 115 38 58
72 107 75 110 3 3 39 57 80 120 41 63 77 117 80 120 3 3 65 95 139 205 134
200 294 436 486 720 56 83 176 260 267 395 204 304 381 566 647 960 347 514
522 774 705 1045 96 143 246 366 333 495 87 129 235 348 327 485 93 138 172
254 176 258 4 4 7 -1625 8 -3620 0 -1995 1 -3640 1 -3655 l1 -28 4924 0 4924
0 0 3363 c0 1849 1 3372 1 3385 1 22 1 22 184 22 l183 0 25 -38 c37 -56 469
-698 574 -852 87 -128 161 -238 540 -800 87 -129 213 -316 280 -415 67 -99
206 -306 310 -460 104 -154 230 -341 280 -415 50 -74 167 -247 260 -385 93
-137 219 -324 280 -415 130 -192 396 -587 546 -810 57 -85 107 -156 111 -158
5 -2 8 -9 8 -16 0 -7 9 -21 20 -31 11 -10 20 -22 20 -26 0 -19 65 -99 77 -95
6 3 99 64 205 137 106 73 243 166 303 208 61 41 126 87 146 101 20 14 45 31
55 37 11 7 81 56 157 108 76 52 142 95 147 95 5 0 10 4 12 8 2 4 82 61 178
127 96 65 209 142 250 170 162 112 287 198 333 228 26 17 47 36 47 41 0 8
-111 226 -285 561 -34 66 -102 197 -150 290 -48 94 -131 253 -183 355 -149
289 -220 425 -321 622 -51 101 -124 242 -161 313 -74 142 -170 330 -330 640
-57 110 -124 241 -150 290 -26 50 -104 201 -174 338 l-127 247 4020 0 4021 0
0 9848 0 9847 -8000 0 c-7106 0 -8000 -2 -8001 -15z"/>
</g>
</svg>
